<svg width="292" height="510" viewBox="0 0 292 510" fill="none" xmlns="http://www.w3.org/2000/svg">
<path d="M287 457.109L220.498 484L220.283 483.435L213 459.015C215.059 458.274 235.772 450.545 235.833 449.804V449.522H236.694C240.719 448.322 259.465 450.828 272.526 447.511C278.856 445.958 285.74 447.616 287 457.109Z" fill="black"/>
<path d="M72.7463 493.434V501L35.4783 493.403L5.38672 478.834L15.3043 459.03L36.5563 467.716C48.1063 473.537 47.7096 482.685 53.5 482.5C59.7029 491.356 72.0071 488.136 72.7463 493.434Z" fill="black"/>
<path d="M23.3518 243.966L21.627 244.397C4.00939 192.253 25.6618 127.357 81.841 102.44L106.789 98.1283C106.709 96.6442 107.122 95.1755 107.963 93.9501C108.804 92.7248 110.026 91.8116 111.44 91.3523C111.76 91.2479 112.091 91.1757 112.425 91.1367C122.429 89.9153 132.544 89.9153 142.548 91.1367C143.058 91.2278 143.555 91.3831 144.026 91.5986C146.521 93.077 147.106 95.3562 148.092 97.7586C148.092 97.7586 171.069 96.1571 177.444 103.272C188.902 115.992 201.591 135.489 202.515 135.211C203.439 134.934 204.086 108.6 203.747 81.3114V80.757C204.916 80.5631 206.069 80.2852 207.197 79.9255C210.261 79.7584 213.253 78.9393 215.975 77.523V77.3383L218.162 78.3239L219.24 78.8475V79.0939C221.18 95.1715 228.264 160.129 217.145 171.894C212.402 176.915 169.036 146.022 169.036 146.022C169.036 146.022 186.13 251.05 186.9 262.816H181.541L65.979 263.617C66.1946 241.256 77.0362 169.061 81.687 138.692C81.687 138.692 31.7294 167.644 41.031 238.391C41.185 239.716 28.1258 242.95 23.3518 243.966Z" fill="#F66E0D"/>
<path d="M156.808 43.9509C157.147 44.4209 157.292 45.0036 157.211 45.5775C157.131 46.1513 156.832 46.672 156.377 47.0309C155.901 47.3397 155.326 47.4569 154.766 47.359C154.207 47.2611 153.706 46.9554 153.363 46.5032C153.02 46.051 152.861 45.4858 152.917 44.921C152.973 44.3562 153.241 43.8336 153.667 43.4581C153.905 43.2842 154.176 43.1589 154.463 43.0895C154.75 43.0202 155.048 43.008 155.34 43.0538C155.631 43.0995 155.911 43.2023 156.163 43.3562C156.415 43.5102 156.635 43.7123 156.808 43.9509Z" fill="black"/>
<path d="M136.728 42.3802C136.914 42.6664 136.981 43.0149 136.911 43.3497C136.842 43.6844 136.643 43.9781 136.358 44.1666C136.07 44.3457 135.723 44.4072 135.391 44.3384C135.059 44.2696 134.765 44.0758 134.572 43.797C134.48 43.6535 134.419 43.4934 134.389 43.3259C134.36 43.1584 134.364 42.9867 134.401 42.8208C134.439 42.6549 134.508 42.4979 134.606 42.3589C134.704 42.2199 134.828 42.1015 134.972 42.0106C135.111 41.9189 135.267 41.8556 135.431 41.8245C135.595 41.7934 135.764 41.7951 135.927 41.8295C136.09 41.8638 136.245 41.9302 136.382 42.0247C136.52 42.1193 136.637 42.2401 136.728 42.3802Z" fill="black"/>
<path d="M222.913 490L290 463.36L288.087 457L221 483.64L222.913 490Z" stroke="black" stroke-width="2.6488" stroke-linecap="round" stroke-linejoin="round"/>
<path d="M135.187 321.952C135.342 322.106 135.486 322.27 135.618 322.445C139.715 327.588 170.145 368.275 171.131 370.37C178.307 385.77 210.216 451.62 212.988 457.749C215.051 457.102 235.811 450.357 235.872 449.71V449.464C236.242 442.103 226.632 388.819 217.392 338.584C216.838 335.504 196.695 292.384 181.233 263.093" stroke="black" stroke-width="2.6488" stroke-miterlimit="10" stroke-linecap="round"/>
<path d="M236.919 449.434C240.954 448.387 259.742 450.573 272.832 447.678C278.992 446.292 286.045 447.678 287.308 456.025L220.657 479.495" stroke="black" stroke-width="2.6488" stroke-linecap="round" stroke-linejoin="round"/>
<path d="M212.927 457.01L213.142 457.687L220.442 479.001" stroke="black" stroke-width="2.6488" stroke-miterlimit="10"/>
<path d="M38 468C43.3835 464.533 93.6844 411.629 114.855 383.86C122.121 374.23 128.826 349.382 135.101 324.214C138.866 309.126 142.499 293.942 146 282" stroke="black" stroke-width="2.6488" stroke-miterlimit="10" stroke-linecap="round"/>
<path d="M70 265C70 274.138 70 284.307 70 294.314C69.5602 320.7 67.9701 347.279 62.7937 357.479C49.2609 384.122 18 459 18 459" stroke="black" stroke-width="2.6488" stroke-miterlimit="10" stroke-linecap="round"/>
<path d="M107.344 264C104.079 275.304 95.024 280.386 84.6444 281.063C80.0494 281.339 75.4403 280.86 71 279.646" stroke="black" stroke-width="2.6488" stroke-miterlimit="10" stroke-linecap="round"/>
<path d="M5.3572 478.835L2 485.087L34.032 499.902L72.7784 508.5V494.143V501.321L35.4488 493.403L5.3572 478.835Z" stroke="black" stroke-width="2.6488" stroke-linecap="round" stroke-linejoin="round"/>
<path d="M72.7473 493.434C72.0081 488.137 71 491.5 55 484C49.2096 484.185 48.1073 473.507 36.5265 467.686L15.2745 459L5.35693 478.804" stroke="black" stroke-width="2.6488" stroke-linecap="round" stroke-linejoin="round"/>
<path d="M145.689 49.7114C145.689 52.391 145.289 57.5654 141.1 55.1014" stroke="black" stroke-width="2.6488" stroke-miterlimit="10" stroke-linecap="round"/>
<path d="M153.914 61.8766C149.571 68.0366 144.92 72.9338 142.918 73.519C142.387 73.6735 141.839 73.7665 141.286 73.7962C134.849 74.3198 127.395 67.9134 125.27 62.0614" stroke="black" stroke-width="2.6488" stroke-miterlimit="10" stroke-linecap="round"/>
<path d="M166.264 28.6748C167.566 32.1505 168.545 35.7384 169.19 39.3932C170.145 45.5532 165.217 55.286 159.735 63.1708" stroke="black" stroke-width="2.6488" stroke-miterlimit="10" stroke-linecap="round"/>
<path d="M120.342 27.8424C120.496 27.2572 120.896 25.1936 121.697 22.4524C122.036 21.282 122.436 20.0192 122.96 18.664C123.483 17.3088 123.915 16.1692 124.5 14.8756C127.272 8.99278 131.645 3.10998 138.391 2.09358C142.98 1.38518 147.23 4.77319 150.895 9.73198C152.43 11.8684 153.809 14.1123 155.023 16.4464V16.4464C156.968 20.1766 158.656 24.0356 160.074 27.9964" stroke="black" stroke-width="2.6488" stroke-miterlimit="10" stroke-linecap="round"/>
<path d="M111.44 91.4762C113.257 73.7662 114.027 58.6434 117.354 41.1182" stroke="black" stroke-width="2.6488" stroke-miterlimit="10"/>
<path d="M141.285 73.7965C141.008 80.6957 140.146 85.2541 142.579 91.0137" stroke="black" stroke-width="2.6488" stroke-miterlimit="10"/>
<path d="M122.528 31.4459C121.899 30.2384 121.112 29.1199 120.188 28.1195C113.658 21.1895 107.529 34.2794 110.085 38.5914C110.917 39.6476 112.04 40.4376 113.315 40.8644C114.59 41.2912 115.961 41.3362 117.262 40.9938C117.854 40.8838 118.433 40.7082 118.986 40.4703" stroke="black" stroke-width="2.6488" stroke-miterlimit="10" stroke-linecap="round"/>
<path d="M121.974 22.3916H121.759C118.679 23.0384 96.2255 26.5496 97.1187 19.3116C97.5191 15.6772 110.209 14.7224 124.161 14.8148H124.654C135.28 14.8148 148.154 15.8928 155.208 16.4472" stroke="black" stroke-width="2.6488" stroke-miterlimit="10"/>
<path d="M159.489 38.2532C158.395 37.5245 157.145 37.0615 155.841 36.9011C154.536 36.7407 153.212 36.8873 151.974 37.3292" stroke="black" stroke-width="3.7884" stroke-miterlimit="10" stroke-linecap="round"/>
<path d="M118.278 33.3866C116.84 34.447 115.071 34.9602 113.289 34.8342" stroke="black" stroke-width="2.6488" stroke-miterlimit="10" stroke-linecap="round"/>
<path d="M166.295 28.3666H166.48C168.795 28.8176 170.999 29.7202 172.966 31.023C174.933 32.3258 176.624 34.0033 177.942 35.9595C179.261 37.9158 180.181 40.1126 180.65 42.4245C181.12 44.7364 181.129 47.1182 180.678 49.4338C180.228 51.7494 179.325 53.9535 178.022 55.9202C176.719 57.887 175.042 59.5779 173.086 60.8964C171.129 62.2148 168.932 63.1351 166.621 63.6046C164.309 64.0741 161.927 64.0836 159.611 63.6326C156.961 63.0656 154.474 61.9029 152.34 60.2327C150.205 58.5624 148.479 56.4284 147.291 53.9922C145.207 49.7107 144.905 44.7775 146.453 40.274C148 35.7705 151.27 32.0644 155.546 29.9682C156.819 29.3373 158.163 28.8616 159.55 28.5514L160.289 28.3974C162.274 28.044 164.306 28.0336 166.295 28.3666V28.3666Z" stroke="black" stroke-width="2.6488" stroke-linecap="round" stroke-linejoin="round"/>
<path d="M138.359 34.6801C137.199 34.0728 135.914 33.7428 134.605 33.7161C133.295 33.6894 131.998 33.9667 130.813 34.5261" stroke="black" stroke-width="2.6488" stroke-miterlimit="10" stroke-linecap="round"/>
<path d="M144.152 64.5019C143.795 64.5405 143.341 64.5266 142.821 64.4611C142.302 64.3956 141.73 64.2802 141.146 64.1231C140.563 63.966 139.982 63.7711 139.446 63.5523C138.909 63.3335 138.43 63.0963 138.043 62.8575" stroke="black" stroke-width="2.6488" stroke-miterlimit="10" stroke-linecap="round"/>
<path d="M191.674 71.6713C189.148 69.4845 191.951 63.2013 194.415 59.7209C194.828 59.1091 195.303 58.5414 195.832 58.0269C196.35 57.4962 196.976 57.0825 197.668 56.8135C198.359 56.5446 199.1 56.4265 199.841 56.4674C200.582 56.5082 201.306 56.7069 201.963 57.0503C202.621 57.3936 203.198 57.8736 203.655 58.4581" stroke="black" stroke-width="2.6488" stroke-linecap="round" stroke-linejoin="round"/>
<path d="M202.239 73.6432C202.224 73.7659 202.224 73.89 202.239 74.0128C202.024 75.7992 197.619 74.9368 198.204 71.3948" stroke="black" stroke-width="2.6488" stroke-linecap="round" stroke-linejoin="round"/>
<path d="M207.043 63.7249C204.821 66.6926 203.19 70.0595 202.238 73.6425" stroke="black" stroke-width="2.6488" stroke-linecap="round" stroke-linejoin="round"/>
<path d="M199.097 63.7866C199.825 61.8012 201.262 60.1555 203.131 59.1666C203.304 59.0592 203.491 58.9762 203.686 58.9202C206.766 57.8114 209.846 59.8442 207.813 62.7702L207.043 63.8174" stroke="black" stroke-width="2.6488" stroke-linecap="round" stroke-linejoin="round"/>
<path d="M212.433 68.7764C208.922 67.452 208.275 71.5176 207.721 74.1048C207.71 74.3305 207.71 74.5567 207.721 74.7824C207.508 75.4225 207.066 75.9616 206.48 76.2964C205.895 76.6313 205.206 76.7384 204.546 76.5973C203.887 76.4562 203.302 76.0768 202.905 75.5317C202.507 74.9866 202.325 74.3141 202.392 73.6428V73.6428" stroke="black" stroke-width="2.6488" stroke-linecap="round" stroke-linejoin="round"/>
<path d="M207.043 63.7242C208.83 61.4758 210.555 60.7982 212.865 61.8762C214.453 62.7519 215.763 64.0567 216.646 65.6416C217.528 67.2264 217.947 69.0275 217.854 70.839" stroke="black" stroke-width="2.6488" stroke-linecap="round" stroke-linejoin="round"/>
<path d="M190.474 65.1421L185.915 62.8013C185.488 62.5831 185.162 62.2072 185.007 61.7531C184.852 61.299 184.879 60.8023 185.084 60.3681V60.1217L186.223 57.8425C186.331 57.6268 186.481 57.4346 186.663 57.2772C186.846 57.1199 187.058 57.0004 187.288 56.9259C187.517 56.8514 187.759 56.8232 187.999 56.8431C188.239 56.863 188.473 56.9305 188.687 57.0417L193.769 59.5673" stroke="black" stroke-width="2.6488" stroke-linecap="round" stroke-linejoin="round"/>
<path d="M212.156 68.6532H212.434L217.762 70.9632L220.288 72.0412L223.768 73.766C224.195 73.9842 224.521 74.3601 224.676 74.8142C224.832 75.2684 224.804 75.765 224.6 76.1992V76.4148L223.368 78.8788C223.143 79.3084 222.762 79.6348 222.303 79.7898C221.844 79.9448 221.342 79.9163 220.904 79.7104L219.302 78.8788L218.224 78.3552L216.037 77.3696L208.522 74.0124" stroke="black" stroke-width="2.6488" stroke-linecap="round" stroke-linejoin="round"/>
<path d="M186.253 57.8421V58.1193L185.329 59.9365C185.338 59.9977 185.338 60.06 185.329 60.1213C185.157 60.3541 184.908 60.5187 184.626 60.5863C184.345 60.6539 184.048 60.6201 183.789 60.4909L179.046 58.0885C178.761 57.9317 178.548 57.6715 178.451 57.3617C178.353 57.052 178.379 56.7166 178.522 56.4253L179.415 54.6389C179.487 54.4925 179.588 54.362 179.711 54.2547C179.833 54.1475 179.976 54.0657 180.131 54.0141C180.286 53.9626 180.449 53.9422 180.612 53.9543C180.775 53.9664 180.933 54.0106 181.079 54.0845L185.822 56.4869C186.029 56.6374 186.182 56.85 186.259 57.0938C186.337 57.3375 186.335 57.5997 186.253 57.8421Z" stroke="black" stroke-width="2.6488" stroke-linecap="round" stroke-linejoin="round"/>
<path d="M215.883 77.6473C213.161 79.0635 210.169 79.8826 207.105 80.0497C205.977 80.4094 204.824 80.6873 203.655 80.8813C199.035 81.6821 191.335 81.5281 191.828 71.9185C191.843 71.837 191.843 71.7535 191.828 71.6721C191.989 70.3318 192.414 69.0368 193.081 67.8629C193.747 66.6889 194.641 65.6594 195.709 64.8345C196.687 64.1311 197.862 63.7539 199.066 63.7565H199.621C200.197 63.8474 200.719 64.1506 201.084 64.6064C201.448 65.0623 201.63 65.6379 201.592 66.2205C201.592 67.5449 199.159 68.7461 197.957 71.2101C197.457 72.2214 197.244 73.3507 197.341 74.4749" stroke="black" stroke-width="2.6488" stroke-linecap="round" stroke-linejoin="round"/>
<path d="M203.747 81.465C204.086 108.754 203.07 135.211 202.515 135.365C201.961 135.519 188.902 116.146 177.444 103.425C171.069 96.3106 148.092 97.9122 148.092 97.9122C147.075 95.3558 146.521 93.0766 144.026 91.7522C143.555 91.5366 143.058 91.3813 142.548 91.2902C132.544 90.0688 122.429 90.0688 112.425 91.2902C112.091 91.3292 111.76 91.4014 111.44 91.5058C110.026 91.9651 108.804 92.8783 107.963 94.1036C107.122 95.329 106.709 96.7977 106.789 98.2818L81.841 102.594C25.6618 127.542 4.00939 192.407 21.627 244.551L23.3518 244.12C28.1258 242.98 41.185 239.746 41.031 238.422C31.7294 167.643 81.533 138.815 81.533 138.815C76.8822 169.183 66.133 241.379 65.825 263.739L181.387 262.939H186.746C185.976 251.173 168.882 146.145 168.882 146.145C168.882 146.145 212.248 176.945 216.991 172.017C228.11 160.251 221.026 95.2942 219.086 79.2166" stroke="black" stroke-width="2.6488" stroke-linecap="round" stroke-linejoin="round"/>
<path d="M41.6777 254.315C46.3285 267.959 39.5833 280.526 33.0537 276.429" stroke="black" stroke-width="2.6488" stroke-linecap="round" stroke-linejoin="round"/>
<path d="M36.4732 256.903C37.4715 260.077 37.7129 263.441 37.178 266.724C36.6432 270.008 35.347 273.121 33.3932 275.814L32.962 276.43C31.8532 277.847 29.882 280.096 27.88 278.71C27.2371 278.19 26.8004 277.458 26.648 276.645C26.4956 275.832 26.6375 274.992 27.0484 274.274" stroke="black" stroke-width="2.6488" stroke-linecap="round" stroke-linejoin="round"/>
<path d="M30.1902 258.443C31.761 263.371 28.2497 274.859 25.1697 276.399C21.5353 278.432 19.6566 274.459 21.443 271.04C27.4182 259.552 19.4409 249.696 23.3525 244.09" stroke="black" stroke-width="2.6488" stroke-linecap="round" stroke-linejoin="round"/>
<path d="M43.3418 263.34C44.0015 263.391 44.6642 263.289 45.2776 263.041C45.8911 262.792 46.4387 262.405 46.8774 261.91C47.3161 261.415 47.634 260.824 47.8061 260.185C47.9782 259.546 47.9999 258.876 47.8694 258.227C46.9979 251.608 44.0422 245.437 39.4302 240.61" stroke="black" stroke-width="2.6488" stroke-linecap="round" stroke-linejoin="round"/>
</svg>
