<?xml version="1.0" standalone="no"?>
<!DOCTYPE svg PUBLIC "-//W3C//DTD SVG 20010904//EN"
 "http://www.w3.org/TR/2001/REC-SVG-20010904/DTD/svg10.dtd">
<svg version="1.0" xmlns="http://www.w3.org/2000/svg"
 width="512.000000pt" height="512.000000pt" viewBox="0 0 512.000000 512.000000"
 preserveAspectRatio="xMidYMid meet">

<g transform="translate(0.000000,512.000000) scale(0.100000,-0.100000)"
fill="#000000" stroke="none">
<path d="M2340 4699 c-414 -42 -827 -215 -1145 -481 -416 -347 -675 -803 -762
-1339 -23 -144 -23 -494 0 -638 73 -453 264 -839 572 -1160 254 -264 537 -446
867 -556 679 -226 1410 -110 1976 315 110 83 273 239 370 355 267 319 440 737
482 1164 29 293 -5 581 -101 876 -126 384 -351 712 -674 983 -433 363 -1011
538 -1585 481z m545 -318 c208 -37 448 -127 631 -239 87 -53 234 -160 234
-171 0 -8 -2593 -2601 -2602 -2601 -7 0 -119 152 -165 225 -61 97 -134 255
-178 387 -202 604 -72 1276 342 1769 300 358 734 590 1213 649 119 14 388 4
525 -19z m1157 -718 c129 -178 207 -328 273 -526 237 -710 11 -1507 -564
-1990 -566 -475 -1360 -570 -2013 -241 -103 52 -268 157 -343 219 l-30 25
1300 1300 c715 715 1303 1300 1307 1300 3 0 35 -39 70 -87z"/>
<path d="M1739 3273 c-29 -76 -522 -1420 -526 -1435 -5 -17 6 -18 124 -18
l128 0 92 93 c71 72 94 101 103 135 10 38 13 42 43 42 28 0 50 18 172 140
l140 140 -129 0 c-109 0 -127 2 -122 15 3 8 38 120 77 250 40 129 75 235 78
235 3 0 37 -102 75 -226 l70 -225 128 128 128 128 -114 310 -114 310 -171 3
-171 2 -11 -27z"/>
<path d="M2750 3203 l0 -98 95 95 c52 52 95 96 95 97 0 2 -43 3 -95 3 l-95 0
0 -97z"/>
<path d="M3465 3110 l-108 -108 29 -15 c109 -57 164 -202 164 -428 0 -189 -38
-315 -117 -391 -56 -54 -102 -70 -220 -76 l-103 -5 0 327 c0 179 -3 326 -8
326 -4 0 -85 -78 -180 -173 l-172 -172 0 -294 0 -294 293 6 c330 5 386 15 520
84 86 44 208 161 254 243 77 136 110 320 93 520 -11 123 -31 193 -83 295 -44
85 -150 203 -218 242 l-36 21 -108 -108z"/>
<path d="M2368 2013 c-129 -131 -135 -139 -126 -165 l10 -28 189 0 c104 0 189
3 189 8 1 13 -114 322 -120 322 -3 0 -67 -62 -142 -137z"/>
</g>
</svg>
