<?xml version="1.0" standalone="no"?>
<!DOCTYPE svg PUBLIC "-//W3C//DTD SVG 20010904//EN"
 "http://www.w3.org/TR/2001/REC-SVG-20010904/DTD/svg10.dtd">
<svg version="1.0" xmlns="http://www.w3.org/2000/svg"
 width="512.000000pt" height="512.000000pt" viewBox="0 0 512.000000 512.000000"
 preserveAspectRatio="xMidYMid meet">

<g transform="translate(0.000000,512.000000) scale(0.100000,-0.100000)"
fill="#000000" stroke="none">
<path d="M1910 4760 c-344 -198 -633 -369 -645 -380 -20 -20 -20 -33 -25 -718
l-5 -697 -585 -337 c-322 -186 -593 -347 -602 -359 -17 -20 -18 -71 -18 -764
0 -693 1 -744 17 -763 10 -12 301 -184 646 -383 553 -319 631 -361 660 -356
18 3 294 157 615 342 345 200 590 335 600 333 9 -3 276 -155 592 -338 483
-280 581 -333 615 -334 35 -1 116 43 660 357 341 197 628 367 638 379 16 19
17 70 17 763 0 693 -1 744 -18 764 -9 12 -280 173 -602 359 l-585 337 -5 697
c-5 685 -5 698 -25 718 -37 37 -1267 740 -1295 740 -16 0 -262 -136 -650 -360z
m852 28 c109 -62 198 -116 198 -119 0 -8 -991 -582 -1006 -582 -21 -1 -405
226 -397 234 10 10 995 579 1002 579 3 0 95 -51 203 -112z m591 -343 c100 -57
190 -110 200 -117 17 -13 -33 -44 -487 -306 l-506 -292 -195 112 c-107 62
-195 117 -196 122 -1 7 985 585 999 586 2 0 86 -47 185 -105z m-1686 -431
c120 -70 324 -188 453 -262 129 -75 259 -149 288 -166 l52 -30 0 -583 c0 -321
-3 -583 -7 -583 -5 0 -233 131 -508 289 l-500 289 -3 586 c-1 322 0 586 2 586
2 0 103 -57 223 -126z m2011 -460 l-3 -586 -500 -289 c-275 -158 -503 -289
-507 -289 -5 0 -8 262 -8 583 l0 583 503 291 c276 160 505 292 510 292 4 1 6
-263 5 -585z m-2132 -876 c107 -62 193 -116 192 -120 -4 -10 -989 -581 -1003
-581 -5 0 -99 52 -209 116 -172 100 -196 117 -180 127 128 78 983 568 993 569
7 1 101 -49 207 -111z m2441 -3 c106 -60 192 -112 193 -115 0 -8 -996 -580
-1010 -580 -15 0 -400 221 -400 229 1 11 995 581 1010 578 8 -1 102 -51 207
-112z m-1829 -350 c106 -60 191 -113 189 -117 -3 -9 -988 -580 -1002 -581 -18
-1 -405 227 -397 234 20 19 999 579 1008 576 6 -1 97 -51 202 -112z m2421 8
c102 -58 191 -111 198 -117 8 -8 -106 -79 -439 -271 -248 -143 -476 -274 -507
-291 l-56 -32 -192 112 c-105 61 -193 116 -194 121 -2 9 974 583 995 584 5 1
93 -47 195 -106z m-4099 -445 c129 -75 352 -203 495 -286 l260 -150 3 -586 c1
-322 0 -586 -2 -586 -2 0 -228 130 -502 288 l-499 288 -3 588 c-1 323 1 585 5
583 5 -2 114 -65 243 -139z m1978 -444 l-3 -585 -500 -289 c-275 -159 -503
-290 -507 -290 -5 0 -8 262 -8 583 l0 583 503 291 c276 160 505 292 510 292 4
1 6 -263 5 -585z m429 460 c120 -70 340 -196 488 -282 149 -85 278 -160 288
-166 16 -10 17 -49 17 -593 0 -321 -3 -583 -7 -583 -5 0 -233 131 -508 290
l-500 289 -3 585 c-1 322 0 586 2 586 3 0 103 -57 223 -126z m1995 -1046 c-9
-9 -992 -578 -998 -578 -2 0 -3 264 -2 586 l3 586 500 289 500 288 3 -581 c1
-320 -2 -586 -6 -590z"/>
<path d="M4683 1123 c-34 -7 -63 -50 -63 -95 0 -30 7 -46 29 -69 81 -81 200
17 146 120 -12 24 -63 54 -84 50 -3 -1 -16 -4 -28 -6z"/>
<path d="M4415 981 c-85 -38 -361 -203 -387 -232 -39 -41 -38 -90 1 -130 52
-51 78 -44 295 81 105 61 201 122 214 136 31 36 29 86 -5 123 -37 38 -69 44
-118 22z"/>
</g>
</svg>
